PathFileType	4	(X/Y/Z)	/Users/itak/Documents/Research/Walk-IL/dataset/trc/00080_00006.trc
DataRate	CameraRate	NumFrames	NumMarkers	Units	OrigDataRate	OrigDataStartFrame	OrigNumFrames
100.000000	100.000000	4	53	mm	100.000000	341	546
Frame#	Time	RPSI			LPSI			L3			STRN			T10			C7			CLAV			RBAK			LBAK			LSHO			LUPA			LAEL			LAOL			LWTS			LWPS			LFRA			LIFD			LHPS			LHTS			RSHO			RUPA			RAEL			RAOL			RWTS			RWPS			RFRA			RIFD			RHTS			RHPS			RBHD			LFHD			RFHD			LBHD			LHIP			RHIP			RASI			LASI			LKNE			LTHI			LANK			LTIP			LTOE			LMT1			LMT5			LHEE			RKNE			RTHI			RANK			RTIP			RTOE			RMT1			RMT5			RHEE			
		X1	Y1	Z1	X2	Y2	Z2	X3	Y3	Z3	X4	Y4	Z4	X5	Y5	Z5	X6	Y6	Z6	X7	Y7	Z7	X8	Y8	Z8	X9	Y9	Z9	X10	Y10	Z10	X11	Y11	Z11	X12	Y12	Z12	X13	Y13	Z13	X14	Y14	Z14	X15	Y15	Z15	X16	Y16	Z16	X17	Y17	Z17	X18	Y18	Z18	X19	Y19	Z19	X20	Y20	Z20	X21	Y21	Z21	X22	Y22	Z22	X23	Y23	Z23	X24	Y24	Z24	X25	Y25	Z25	X26	Y26	Z26	X27	Y27	Z27	X28	Y28	Z28	X29	Y29	Z29	X30	Y30	Z30	X31	Y31	Z31	X32	Y32	Z32	X33	Y33	Z33	X34	Y34	Z34	X35	Y35	Z35	X36	Y36	Z36	X37	Y37	Z37	X38	Y38	Z38	X39	Y39	Z39	X40	Y40	Z40	X41	Y41	Z41	X42	Y42	Z42	X43	Y43	Z43	X44	Y44	Z44	X45	Y45	Z45	X46	Y46	Z46	X47	Y47	Z47	X48	Y48	Z48	X49	Y49	Z49	X50	Y50	Z50	X51	Y51	Z51	X52	Y52	Z52	X53	Y53	Z53	

342	3.41	159.2061767578125	1006.707580566406	-25.43037796020508	30.0013484954834	996.2149047851562	-144.6340484619141	92.87773132324219	1059.311279296875	-89.33629608154297	264.4262390136719	1267.447998046875	-266.9505920410156	76.94273376464844	1192.675537109375	-75.62889862060547	115.5347442626953	1461.202758789062	-109.6573638916016	241.1889801025391	1381.370483398438	-242.4041748046875	124.8792266845703	1319.1708984375	-17.14746284484863	26.6562671661377	1427.674560546875	-163.709716796875	44.54772567749023	1438.861938476562	-287.8903198242188	-31.54904556274414	1318.886352539062	-329.1559448242188	-54.79337692260742	1106.740844726562	-358.1802978515625	-26.74868011474609	1088.12744140625	-255.9535827636719	38.97842788696289	864.9989013671875	-399.37451171875	-45.1683464050293	855.4906005859375	-386.6579895019531	-55.08295822143555	997.7305297851562	-381.0372619628906	53.51227569580078	677.7070922851562	-399.3999633789062	-25.30304908752441	775.1015625	-410.3263854980469	44.92973709106445	781.2265014648438	-421.0416259765625	283.4803771972656	1421.475830078125	-35.4339485168457	319.5354614257812	1350.298095703125	13.45478630065918	335.6013488769531	1085.994262695312	50.23413848876953	288.0091247558594	1065.621704101562	-36.08334732055664	450.5625305175781	871.2355346679688	-111.8217697143555	437.8611450195312	838.6497192382812	-32.16135787963867	361.669677734375	1006.203857421875	38.4595947265625	470.4811401367188	691.6263427734375	-163.2176971435547	482.4522399902344	780.5098266601562	-147.1667938232422	479.24365234375	761.8743896484375	-72.23341369628906	103.9403915405273	1637.140258789062	-132.3913421630859	296.4088745117188	1683.78759765625	-217.2269897460938	187.7047729492188	1690.539916992188	-280.5151672363281	226.9712829589844	1623.348388671875	-72.54378509521484	45.61943435668945	938.1527099609375	-284.9996032714844	261.6266784667969	935.4849243164062	-17.44447135925293	336.0400390625	956.3494262695312	-118.1969909667969	163.5725402832031	953.7991333007812	-321.0872802734375	257.302978515625	508.2953186035156	-344.7655029296875	166.4043121337891	628.901611328125	-339.9834899902344	221.4559936523438	43.50926971435547	-288.0595703125	231.9688415527344	256.2171020507812	-326.0364074707031	393.669189453125	38.52302551269531	-405.0951843261719	384.5094909667969	39.965576171875	-334.6377868652344	281.4070129394531	37.74846649169922	-380.302978515625	229.5516967773438	42.81400680541992	-196.1273956298828	319.7627258300781	490.3287658691406	-73.85749816894531	327.0576782226562	762.6935424804688	-67.42123413085938	30.96026611328125	195.1586303710938	199.6072082519531	264.9509887695312	398.4759216308594	-6.909185409545898	118.0832138061523	43.3803596496582	84.64295959472656	64.67168426513672	86.95234680175781	74.65901184082031	102.6265335083008	100.0064010620117	166.0780639648438	-21.88211441040039	231.7750091552734	169.2400054931641	
343	3.42	165.6230773925781	1006.459777832031	-32.07339096069336	35.69116592407227	996.7582397460938	-150.2622222900391	98.51757049560547	1060.088989257812	-95.57691192626953	269.3699951171875	1268.212768554688	-273.7415466308594	82.42845916748047	1193.387451171875	-82.02988433837891	120.8905563354492	1461.968627929688	-116.0082931518555	246.2054595947266	1382.121826171875	-249.0896759033203	130.5194244384766	1319.885375976562	-23.61236953735352	31.84248161315918	1428.375854492188	-169.9008178710938	49.4732666015625	1439.499145507812	-294.1078186035156	-26.52045440673828	1319.479736328125	-335.4673156738281	-49.64532470703125	1107.338745117188	-365.0926208496094	-21.73524284362793	1088.460571289062	-262.9560241699219	45.5468635559082	866.323974609375	-407.30029296875	-38.32760238647461	856.0997924804688	-394.3304748535156	-49.3884391784668	998.3636474609375	-388.2899475097656	61.82226181030273	679.3806762695312	-408.4335021972656	-17.94331741333008	776.0441284179688	-418.4809875488281	52.2350959777832	782.924072265625	-429.4610595703125	289.1522827148438	1422.036743164062	-42.29392242431641	325.3287048339844	1350.763793945312	6.406972885131836	341.3197937011719	1086.447631835938	42.99943923950195	293.1206665039062	1066.020751953125	-43.00644683837891	454.5561218261719	870.4036254882812	-118.4111099243164	442.1812438964844	838.41455078125	-38.38005447387695	366.9624938964844	1006.718017578125	31.4160041809082	473.3998413085938	690.3568115234375	-168.6616363525391	485.8228759765625	779.27392578125	-153.2982940673828	483.0046081542969	761.1644287109375	-78.21553802490234	108.9431076049805	1637.642822265625	-138.7086791992188	300.9913330078125	1684.8681640625	-224.2038269042969	192.0225219726562	1691.407592773438	-287.0871276855469	232.253173828125	1624.095947265625	-79.34279632568359	49.96111297607422	938.8972778320312	-290.8047180175781	268.3723449707031	935.28857421875	-25.53196334838867	342.0235595703125	957.2047119140625	-126.6470413208008	167.4980316162109	954.5717163085938	-327.8410034179688	259.3906860351562	507.59765625	-348.5608520507812	169.0545196533203	628.7066650390625	-344.0169067382812	221.4136352539062	43.43675231933594	-288.1085205078125	232.6630401611328	255.8479614257812	-327.6134948730469	393.6372985839844	38.51192474365234	-405.1452941894531	384.4552307128906	39.9659309387207	-334.6781005859375	281.4229431152344	37.48895645141602	-380.4649658203125	229.5874633789062	42.91374206542969	-196.1460266113281	332.9963989257812	491.0608520507812	-88.37290954589844	335.87158203125	763.6285400390625	-77.95253753662109	44.33568572998047	200.8814849853516	189.3194427490234	278.6264953613281	399.9141235351562	-21.09372138977051	130.8158416748047	47.48701858520508	74.03972625732422	76.90564727783203	91.59725189208984	64.73771667480469	116.3811950683594	106.2940902709961	155.4289398193359	-8.92800235748291	237.0553588867188	159.4647216796875	
344	3.43	172.1139984130859	1006.426879882812	-38.68716430664062	41.35553359985352	997.3873901367188	-155.6674041748047	104.1780395507812	1060.904296875	-101.6542663574219	274.2294921875	1269.05908203125	-280.393310546875	87.84558868408203	1194.118286132812	-88.23343658447266	126.1592636108398	1462.7568359375	-122.2028503417969	251.1394348144531	1382.941772460938	-255.6016998291016	136.0782928466797	1320.610961914062	-29.9458179473877	36.93220901489258	1429.118286132812	-175.9255218505859	54.3208122253418	1440.189331054688	-300.1556091308594	-21.52982330322266	1320.107421875	-341.6433410644531	-44.45385360717773	1108.002075195312	-371.9385681152344	-16.75761032104492	1088.834594726562	-269.8851013183594	52.07667541503906	867.6968994140625	-415.1521911621094	-31.54764938354492	856.832275390625	-402.0757446289062	-43.66391372680664	999.0949096679688	-395.5331115722656	69.89930725097656	681.099365234375	-417.4690856933594	-10.68132591247559	777.1114501953125	-426.7284851074219	59.47686767578125	784.68212890625	-437.8393249511719	294.7100524902344	1422.64306640625	-48.96348571777344	330.9901123046875	1351.291015625	-0.433392733335495	346.9528198242188	1086.96923828125	35.94330978393555	298.1662902832031	1066.4921875	-49.75119018554688	458.4643859863281	869.6483154296875	-124.8063049316406	446.5205383300781	838.2868041992188	-44.37288665771484	372.2117919921875	1007.313720703125	24.54537200927734	476.3662414550781	689.165283203125	-173.8473205566406	489.1607666015625	778.1358032226562	-159.2034149169922	486.8044738769531	760.5787963867188	-83.97678375244141	113.9224014282227	1638.248168945312	-144.9422912597656	305.5435180664062	1685.945678710938	-231.1675872802734	196.2950286865234	1692.255859375	-293.6214294433594	237.5284576416016	1624.953002929688	-86.06498718261719	54.12776565551758	939.6576538085938	-296.3721313476562	275.1805114746094	935.3844604492188	-33.54550933837891	347.9143676757812	958.2032470703125	-135.1617889404297	171.1542053222656	955.3740844726562	-334.4656677246094	261.249267578125	506.9014892578125	-352.16015625	171.5011444091797	628.5565185546875	-347.885986328125	221.3414154052734	43.35416030883789	-288.1752624511719	233.3404846191406	255.4994354248047	-329.1337585449219	393.6136474609375	38.50181198120117	-405.1859741210938	384.3690490722656	39.97426223754883	-334.7341613769531	281.4228515625	37.24324798583984	-380.6296691894531	229.5951385498047	43.03401947021484	-196.1842498779297	345.9843139648438	492.1650695800781	-102.9491806030273	344.6091918945312	764.8140869140625	-88.49910736083984	58.20766448974609	205.3626251220703	178.1982574462891	292.1293640136719	401.5348205566406	-35.41934967041016	144.6891326904297	51.69300079345703	62.12554931640625	90.15662384033203	95.70333862304688	53.6725959777832	131.0509490966797	111.8210830688477	143.5961761474609	4.393519401550293	240.97705078125	148.9485168457031	
345	3.44	178.6819000244141	1006.624938964844	-45.30698776245117	46.98748779296875	998.1154174804688	-160.8857269287109	109.8852310180664	1061.742797851562	-107.5929565429688	278.9938659667969	1270.006225585938	-286.9376525878906	93.22577667236328	1194.857299804688	-94.23226928710938	131.3539428710938	1463.563720703125	-128.2335205078125	255.9814910888672	1383.8466796875	-261.9603576660156	141.5863342285156	1321.34326171875	-36.15193939208984	41.93164443969727	1429.898681640625	-181.7606658935547	59.07187652587891	1440.958862304688	-306.0103454589844	-16.60972595214844	1320.800659179688	-347.6547241210938	-39.22102737426758	1108.763671875	-378.6764526367188	-11.75167560577393	1089.27978515625	-276.702880859375	58.57893753051758	869.1568603515625	-422.9138488769531	-24.85243606567383	857.7335205078125	-409.87548828125	-37.90863418579102	999.9544677734375	-402.7349853515625	77.71955871582031	682.87841796875	-426.4680786132812	-3.526443958282471	778.340576171875	-435.0428466796875	66.63642883300781	786.5189208984375	-446.1501770019531	300.167236328125	1423.319580078125	-55.46479415893555	336.5375061035156	1351.910278320312	-7.088475227355957	352.4663696289062	1087.596923828125	29.05808067321777	303.1612854003906	1067.0791015625	-56.35100555419922	462.2919311523438	868.9951171875	-130.9895172119141	450.8506164550781	838.2981567382812	-50.13969421386719	377.3814392089844	1008.015319824219	17.84844970703125	479.3811340332031	688.080322265625	-178.7700347900391	492.4783325195312	777.1199340820312	-164.86181640625	490.6217041015625	760.1466064453125	-89.49612426757812	118.8808517456055	1638.979370117188	-151.0828247070312	310.0706787109375	1687.0126953125	-238.1204681396484	200.5269012451172	1693.088012695312	-300.1164855957031	242.7959899902344	1625.932006835938	-92.7047119140625	58.13430023193359	940.447509765625	-301.7335815429688	282.0408020019531	935.7825317382812	-41.47101593017578	353.693115234375	959.340087890625	-143.735595703125	174.5894165039062	956.22900390625	-341.0019226074219	262.9156494140625	506.212890625	-355.5637512207031	173.7784271240234	628.4492797851562	-351.6083068847656	221.2510833740234	43.2697868347168	-288.2546997070312	234.0285949707031	255.1770629882812	-330.5884704589844	393.6064453125	38.48287200927734	-405.2149047851562	384.2663269042969	39.98102569580078	-334.8002319335938	281.4122009277344	37.02460479736328	-380.7870483398438	229.5860290527344	43.17160797119141	-196.2381896972656	358.7109985351562	493.6154479980469	-117.5690841674805	353.2528381347656	766.237548828125	-99.05187225341797	72.55870056152344	208.5577697753906	166.3031311035156	305.4459838867188	403.3018493652344	-49.8563117980957	159.6049957275391	55.72744750976562	49.01582717895508	104.3439407348633	99.13606262207031	41.53770065307617	146.4857177734375	116.4360275268555	130.6985778808594	18.09345245361328	243.5243682861328	137.7324371337891	
